<svg width="256" height="256" viewBox="0 0 256 256" fill="none" xmlns="http://www.w3.org/2000/svg">
<rect width="256" height="256" fill="white"/>
<g clip-path="url(#clip0_235_2)">
<path d="M221.394 148.879H198.559C187.14 148.879 186.961 131.547 198.804 131.547H221.394C223.124 131.547 224.476 130.034 224.266 128.317C218.856 84.0495 183.664 48.8563 139.396 43.4468C137.679 43.2372 136.166 44.5888 136.166 46.3199V68.9086C136.166 80.7367 118.834 80.5802 118.834 69.1537V46.319C118.834 44.588 117.321 43.2363 115.604 43.4459C71.336 48.8559 36.1437 84.0487 30.7337 128.316C30.5241 130.034 31.8757 131.547 33.6059 131.547H56.1959C68.0245 131.547 67.8675 148.878 56.441 148.878H33.6063C31.8762 148.878 30.5237 150.391 30.7341 152.109C36.1437 196.376 71.3369 231.569 115.604 236.979C117.322 237.188 118.835 235.837 118.835 234.105V211.515C118.835 199.687 136.166 199.843 136.166 211.27V234.105C136.166 235.837 137.679 237.188 139.397 236.979C183.664 231.569 218.857 196.376 224.267 152.109C224.476 150.392 223.125 148.879 221.394 148.879ZM166.038 113.929L141.073 138.895C141.846 146.967 135.504 153.85 127.5 153.85C119.969 153.85 113.863 147.744 113.863 140.212C113.863 132.21 120.745 125.865 128.818 126.64L153.784 101.674C161.879 93.5778 174.147 105.822 166.038 113.929Z" fill="#6C7394"/>
<path d="M112.579 35.3314H142.421C153.872 35.3314 153.884 18 142.421 18H112.579C101.128 18 101.115 35.3314 112.579 35.3314Z" fill="#6C7394"/>
</g>
<defs>
<clipPath id="clip0_235_2">
<rect width="219" height="219" fill="white" transform="translate(18 18)"/>
</clipPath>
</defs>
</svg>
